<svg height="128" viewBox="0 0 355 128" width="355" xmlns="http://www.w3.org/2000/svg"><g fill="none" fill-rule="evenodd"><path d="m0 123h355v5h-355z" fill="#14a3fd"/><path d="m0 114h355v5h-355z" fill="#48cc31"/><path d="m0 105h355v5h-355z" fill="#f2f540"/><path d="m0 96h355v5h-355z" fill="#fd7801"/><path d="m0 87h355v5h-355z" fill="#f20029"/><g fill="#fff"><path d="m14 0v79h-14v-74z"/><path d="m73 79h-14l.000844-2.1948254c-3.8849749 2.0403812-8.308092 3.1948254-13.000844 3.1948254-15.463973 0-28-12.536027-28-28s12.536027-28 28-28c4.692752 0 9.1158691 1.1544442 13.000844 3.1948254l-.000844-2.1948254h14zm-27-40c-7.1797017 0-13 5.8202983-13 13s5.8202983 13 13 13 13-5.8202983 13-13-5.8202983-13-13-13z"/><path d="m77 25 22 54h12l22-54h-15.99995l-12.00005 31-12-31z"/><path d="m156 24c15.463973 0 28 12.536027 28 28v6.999l-20.5.001-18.456149.000336c2.310174 3.6081252 6.353875 5.999664 10.956149 5.999664 3.717074 0 7.069781-1.5600365 9.4391-4.0610872l10.608681 10.6081397c-5.085405 5.2148527-12.188444 8.4529475-20.047781 8.4529475-15.463973 0-28-12.536027-28-28s12.536027-28 28-28zm0 15c-4.602702 0-8.646726 2.391983-10.956793 6.0006692h21.913586c-2.310067-3.6086862-6.354091-6.0006692-10.956793-6.0006692z"/><path d="m202 25 .000478 3.1759494c3.044104-1.3970576 6.430853-2.1759494 9.999522-2.1759494 12.919922 0 23.455398 10.2090261 23.979553 23.0002029l.020447-.0002029v30h-14v-29c0-5.5228475-4.477153-10-10-10-5.42924 0-9.847932 4.3266708-9.996158 9.7200952l-.003842.2799048v29h-14v-54z"/><path d="m282 0 14 5v47c0 15.463973-12.536027 28-28 28s-28-12.536027-28-28 12.536027-28 28-28c5.100232 0 9.881971 1.3636334 14.000514 3.7461988zm-14 39c-7.179702 0-13 5.8202983-13 13s5.820298 13 13 13 13-5.8202983 13-13-5.820298-13-13-13z"/><path d="m355 79h-14l.000844-2.1948254c-3.884975 2.0403812-8.308092 3.1948254-13.000844 3.1948254-15.463973 0-28-12.536027-28-28s12.536027-28 28-28c4.692752 0 9.115869 1.1544442 13.000844 3.1948254l-.000844-2.1948254h14zm-27-40c-7.179702 0-13 5.8202983-13 13s5.820298 13 13 13 13-5.8202983 13-13-5.820298-13-13-13z"/></g></g></svg>